<svg width="256" height="256" viewBox="0 0 256 256" fill="none" xmlns="http://www.w3.org/2000/svg">
<path fill-rule="evenodd" clip-rule="evenodd" d="M256 0H0V204.665V256H256V204.709V0ZM256 204.709C255.978 206.091 255.652 207.45 255.044 208.69C254.437 209.929 253.564 211.018 252.487 211.878C250.077 213.836 247.063 214.889 243.964 214.854H180.093C176.475 214.894 172.864 215.16 169.279 215.65C164.154 216.74 159.223 218.605 154.655 221.182C148.099 225.959 142.806 232.275 139.238 239.578C139.041 240.004 138.813 240.415 138.555 240.806C137.811 241.93 136.862 242.902 135.758 243.672C134.511 244.541 133.12 245.182 131.651 245.563C130.465 245.879 129.243 246.039 128.017 246.039C126.755 246.033 125.499 245.858 124.283 245.519C122.915 245.15 121.616 244.555 120.44 243.76C119.256 242.966 118.242 241.943 117.456 240.751C117.212 240.376 116.995 239.984 116.806 239.578C113.244 232.268 107.945 225.95 101.378 221.182C96.8101 218.605 91.8792 216.74 86.7539 215.65C83.0463 215.124 79.3095 214.832 75.5655 214.776H12.0253C8.92595 214.811 5.91157 213.759 3.50187 211.801C2.43166 210.943 1.56294 209.859 0.957627 208.626C0.352319 207.392 0.0253401 206.04 0 204.665L0.605673 21.028C0.909611 18.1075 2.3392 15.4225 4.58861 13.5474C6.83802 11.6722 9.7286 10.7559 12.642 10.9943H75.8739C81.3897 11.0452 86.8797 11.7582 92.227 13.1183C99.6925 15.0477 106.946 17.7272 113.877 21.1165C119.129 23.8643 123.907 27.4426 128.028 31.7144C132.148 27.4425 136.926 23.8642 142.178 21.1165C149.109 17.7272 156.363 15.0477 163.828 13.1183C169.168 11.76 174.651 11.0469 180.159 10.9943H243.369C246.288 10.7595 249.181 11.6833 251.429 13.5674C253.678 15.4516 255.101 18.1459 255.394 21.0723L256 204.709ZM114.24 50.1002C115.062 52.0705 115.65 54.1313 115.991 56.2399L115.98 205.075L115.176 204.588C108.189 200.628 100.633 197.781 92.7776 196.147C87.204 195.213 81.5679 194.707 75.9179 194.632H24.0946L24.6342 31.2829H75.8739C78.9077 31.3204 81.9284 31.6913 84.8818 32.3892C90.6051 33.852 96.1683 35.8866 101.488 38.4625C106.515 41.3862 110.862 45.3538 114.24 50.1002ZM180.159 31.2166H231.399L231.938 194.587H179.774C174.238 194.677 168.716 195.183 163.255 196.103C155.39 197.767 147.83 200.648 140.846 204.643L140.042 205.13V56.1735C140.378 54.1573 140.909 52.1788 141.628 50.2662C145.034 45.4232 149.44 41.3746 154.545 38.3961C159.868 35.8196 165.435 33.785 171.162 32.3228C174.111 31.6191 177.129 31.248 180.159 31.2166Z" fill="#fff"/>
</svg>
